<?xml version="1.0" encoding="iso-8859-1"?>
<!-- Uploaded to: SVG Repo, www.svgrepo.com, Generator: SVG Repo Mixer Tools -->
<svg version="1.1" id="Layer_1" xmlns="http://www.w3.org/2000/svg" xmlns:xlink="http://www.w3.org/1999/xlink" 
	 viewBox="0 0 365.086 365.086" xml:space="preserve">
<g>
	<rect x="170.092" y="214.583" style="fill:#1E252B;" width="24.905" height="136.95"/>
	<path style="fill:#005CB9;" d="M123.684,0h102.424c12.25,0,22.273,10.024,22.273,22.274v180.865
		c0,12.25-10.023,22.273-22.273,22.273H123.684c-3.854,0-6.979-3.125-6.979-6.979V6.98C116.705,3.126,119.829,0,123.684,0z"/>
	<path style="fill:#333E48;" d="M134.162,359.277c0,3.195,2.614,5.809,5.809,5.809h85.145c3.195,0,5.809-2.614,5.809-5.809v-7.745
		c0-3.193-2.614-5.807-5.809-5.807h-85.145c-3.195,0-5.809,2.614-5.809,5.807V359.277z"/>
	<path style="fill:#FFFFFF;" d="M189.807,61.386c5.313-0.577,11.363-0.229,18.485,6.144c7.123,6.373,12.103,24.799-1.707,53.087
		c-13.545,27.747-28.065,34.928-40.983,34.734c-10.498-0.158-17.436-5.876-18.229-7.469c-0.794-1.593-1.832-2.982,0.641-5.759
		c2.471-2.778,9.582-10.739,10.904-12.086s2.864-4.142,6.288-2.52c3.424,1.623,6.376,2.895,8.005,3.542
		c1.628,0.647,7.97,3.346,17.774-16.193c9.805-19.541,6.551-20.881,3.518-22.074c-3.032-1.192-5.521-2.148-6.698-3.02
		c-1.178-0.872-2.503-1.664-2.455-4.126c0.049-2.464,0.226-20.333,0.24-21.304C185.605,63.372,186.705,61.722,189.807,61.386z"/>
	<rect x="116.705" y="187.992" style="fill:#61B4E4;" width="131.676" height="11.583"/>
	<circle style="fill:#1E252B;" cx="182.543" cy="29.997" r="4.957"/>
	<circle style="fill:#1E252B;" cx="153.533" cy="29.997" r="4.957"/>
	<circle style="fill:#1E252B;" cx="211.553" cy="29.997" r="4.957"/>
</g>
</svg>